<?xml version="1.0" encoding="utf-8"?>
<!-- Generator: Adobe Illustrator 27.3.1, SVG Export Plug-In . SVG Version: 6.00 Build 0)  -->
<svg version="1.1" xmlns="http://www.w3.org/2000/svg" xmlns:xlink="http://www.w3.org/1999/xlink" x="0px" y="0px"
	 viewBox="0 0 250 65.9" style="enable-background:new 0 0 250 65.9;" xml:space="preserve">
<style type="text/css">
	.st0{fill:#FFFFFF;}
	.st1{fill:#1B4268;}
	.st2{fill:#FDFDFF;}
</style>
<g id="Layer_2">
</g>
<g id="Layer_1">
	<g>
		<rect x="30.3" y="28" class="st0" width="3.8" height="1.9"/>
		<rect x="30.3" y="38.4" class="st0" width="3.8" height="1.9"/>
		<rect x="23.9" y="48.8" class="st0" width="3.8" height="1.9"/>
		<rect x="23.9" y="38.4" class="st0" width="3.8" height="1.9"/>
		<rect x="30.3" y="48.8" class="st0" width="3.8" height="1.9"/>
		<path class="st0" d="M46.5,55.3c0,2.9-2.3,5.2-5.2,5.2H10.8c-2.9,0-5.2-2.3-5.2-5.2V10.6c0-2.9,2.3-5.2,5.2-5.2h18.8v7.5
			c0,5.2,4.3,9.5,9.5,9.5h7.5l0,0l0.5-0.8c0.8-1.3,2-2.2,3.5-2.5l-18-18H10.8c-5.2,0-9.5,4.3-9.5,9.5v44.8c0,5.2,4.3,9.5,9.5,9.5
			h30.6c5.2,0,9.5-4.3,9.5-9.5V38.9l-4.3,7.2v9.2H46.5z"/>
		<path class="st1" d="M33.8,8.4l9.7,9.7H39c-2.9,0-5.2-2.3-5.2-5.2V8.4z"/>
		<polygon class="st0" points="37.1,41.1 36,51 44.5,45.7 		"/>
		<polygon class="st0" points="40.8,32.3 44.4,26.2 42.8,25.1 39.1,31.2 		"/>
		<rect x="17.5" y="38.4" class="st0" width="3.8" height="1.9"/>
		<rect x="11.1" y="28" class="st0" width="3.8" height="1.9"/>
		<polygon class="st0" points="38.1,39.5 45.5,44.1 53.1,31.5 45.6,26.9 		"/>
		<rect x="11.1" y="38.4" class="st0" width="3.8" height="1.9"/>
		<g>
			<path class="st0" d="M19.5,11.5c0-1.9-1.2-3.1-2.6-3.1s-2.6,1.2-2.6,3.1s1.1,3.7,2.6,3.7C18.3,15.2,19.5,13.4,19.5,11.5z"/>
			<path class="st1" d="M16.9,14.6c-1,0-1.9-1.4-2-2.9c1.3,0,2.2-0.7,2.8-1.2c0.1,0.3,0.4,0.7,1.2,0.9v0.1
				C18.9,13.1,17.9,14.6,16.9,14.6z"/>
		</g>
		<polygon class="st0" points="16.2,16.1 16.6,16.8 17.2,16.8 17.6,16.1 17.3,15.8 16.6,15.8 		"/>
		<g>
			<g>
				<path class="st0" d="M22.6,19.9c0-1.9-1.6-4-3.9-4.6l-0.3,0.5c0.2,0.1,0.5,0.1,0.7,0.2l-1.4,4.7l0,0L17.2,17h-0.6l-0.5,3.7l0,0
					L14.7,16c0.2-0.1,0.5-0.2,0.7-0.3l-0.3-0.6c-2.3,0.7-3.9,2.8-3.9,4.7v1.4h11.4C22.6,21.2,22.6,19.9,22.6,19.9z"/>
				<rect x="19.2" y="19.5" class="st0" width="1.9" height="0.4"/>
			</g>
		</g>
		<rect x="23.9" y="28" class="st0" width="3.8" height="1.9"/>
		<rect x="17.5" y="28" class="st0" width="3.8" height="1.9"/>
		<path class="st0" d="M54.6,21.7l-0.8-0.5c-1.8-1.1-4.1-0.5-5.2,1.2l-1.9,3l1.3,0.8l0.3,0.2l1.3,0.8l0.3,0.2l4,2.5l1.9-3
			C57,25.2,56.4,22.8,54.6,21.7z"/>
	</g>
	<path class="st0" d="M63.5,21.6V4.7h6.8c1.3,0,2.4,0.2,3.5,0.7c1.1,0.4,2,1,2.8,1.8s1.4,1.7,1.9,2.7s0.7,2.1,0.7,3.3
		s-0.2,2.3-0.7,3.3s-1.1,1.9-1.9,2.7c-0.8,0.8-1.8,1.4-2.8,1.8c-1.1,0.4-2.2,0.7-3.5,0.7h-6.8V21.6z M67.6,17.9h2.6
		c0.7,0,1.3-0.1,1.8-0.4c0.6-0.2,1.1-0.6,1.5-1s0.8-0.9,1-1.5s0.4-1.2,0.4-1.8c0-0.7-0.1-1.3-0.4-1.9c-0.2-0.6-0.6-1.1-1-1.5
		S72.6,9,72,8.8s-1.2-0.4-1.8-0.4h-2.6V17.9z"/>
	<path class="st0" d="M88.2,21.6V4.7h13.3v3.6h-9.2v3h6v3.5h-6V18h9.2v3.6H88.2z"/>
	<path class="st0" d="M117,21.8c-1.4,0-2.7-0.2-4-0.7s-2.5-1.2-3.6-2.1l2.3-3c1,0.8,2,1.4,2.8,1.8c0.9,0.4,1.8,0.5,2.8,0.5
		c0.6,0,1.2-0.1,1.6-0.2s0.8-0.3,1-0.6c0.2-0.2,0.4-0.5,0.4-0.9c0-0.5-0.2-0.8-0.5-1.1c-0.4-0.3-1-0.5-1.8-0.6l-3.7-0.7
		c-1.4-0.2-2.4-0.8-3.2-1.6c-0.7-0.8-1.1-1.8-1.1-3.1c0-1.1,0.3-2,0.8-2.8c0.6-0.8,1.3-1.4,2.4-1.8c1-0.4,2.3-0.6,3.7-0.6
		c1.3,0,2.5,0.2,3.8,0.6s2.4,1,3.3,1.8l-2.2,3.1c-1.7-1.3-3.5-2-5.2-2c-0.6,0-1,0.1-1.5,0.2c-0.4,0.1-0.7,0.3-0.9,0.5
		c-0.2,0.2-0.3,0.5-0.3,0.8c0,0.4,0.2,0.7,0.5,1c0.3,0.2,0.8,0.4,1.5,0.5l3.5,0.6c1.6,0.3,2.9,0.8,3.7,1.6c0.8,0.8,1.3,1.9,1.3,3.2
		c0,1.1-0.3,2.1-0.9,3c-0.6,0.8-1.4,1.5-2.6,1.9C119.8,21.6,118.5,21.8,117,21.8z"/>
	<path class="st0" d="M133,21.6V4.7h4.1v16.9C137.1,21.6,133,21.6,133,21.6z"/>
	<path class="st0" d="M155.1,21.8c-1.3,0-2.4-0.2-3.5-0.7c-1.1-0.4-2.1-1.1-2.9-1.9c-0.8-0.8-1.5-1.7-1.9-2.8
		c-0.5-1.1-0.7-2.2-0.7-3.4s0.2-2.4,0.7-3.4c0.5-1.1,1.1-2,1.9-2.8c0.8-0.8,1.8-1.4,2.9-1.9c1.1-0.4,2.3-0.7,3.5-0.7
		c1.4,0,2.8,0.3,4,0.9c1.3,0.6,2.3,1.4,3.1,2.4l-2.9,2.6c-0.5-0.7-1.2-1.2-1.9-1.6c-0.7-0.4-1.5-0.5-2.3-0.5c-0.7,0-1.3,0.1-1.9,0.4
		c-0.6,0.2-1.1,0.6-1.5,1s-0.8,0.9-1,1.5s-0.3,1.2-0.3,2c0,0.7,0.1,1.4,0.4,2c0.2,0.6,0.6,1.1,1,1.6c0.4,0.4,1,0.8,1.5,1
		c0.6,0.2,1.2,0.4,1.9,0.4s1.3-0.1,1.8-0.3c0.5-0.2,1-0.5,1.4-0.9s0.7-0.9,0.8-1.4h-4.6v-3.6h9V13c0,1.3-0.2,2.4-0.6,3.5
		c-0.4,1.1-1,2-1.8,2.8s-1.7,1.4-2.7,1.8C157.5,21.6,156.4,21.8,155.1,21.8z"/>
	<path class="st0" d="M172.6,21.6V4.7h3.9l7.7,9.8V4.7h3.9v16.9h-3.7l-7.9-10.2v10.2C176.5,21.6,172.6,21.6,172.6,21.6z"/>
	<path class="st0" d="M203.9,21.6V4.7h5.2l4.2,7.9l4.2-7.9h5.2v16.9h-3.9V10.1l-5.5,10.3L207.7,10v11.5h-3.8V21.6z"/>
	<path class="st0" d="M237.6,21.6v-6.3l-7-10.6h4.8l4.4,6.9l4.4-6.9h4.5l-7,10.6v6.3C241.7,21.6,237.6,21.6,237.6,21.6z"/>
	<g>
		<path class="st2" d="M63.7,62.1V29.9h12.8c4,0,7.1,0.8,9.2,2.4c2.1,1.6,3.2,3.9,3.2,6.9c0,1.8-0.5,3.3-1.4,4.6s-2.3,2.3-4,3
			c2,0.6,3.3,1.6,4,2.8s1,2.8,1,4.7v7.6h-7.4v-6.8c0-3.3-1.5-4.9-4.6-4.9h-5.3V62h-7.5V62.1z M71.2,44h5.3c1.5,0,2.7-0.4,3.5-1.1
			c0.8-0.7,1.2-1.7,1.2-3c0-1.2-0.4-2.1-1.2-2.7c-0.8-0.6-2-1-3.5-1h-5.3V44z"/>
		<path class="st2" d="M94.2,62.1V29.9h21.9v6.5h-14.4v6.1h13.5v6.2h-13.5v7h14.4v6.5H94.2V62.1z"/>
		<path class="st2" d="M133.4,62.8c-2.5,0-4.8-0.4-6.9-1.3c-2-0.9-3.7-2.1-4.9-3.8c-1.2-1.6-1.8-3.7-1.8-6.1h7.6
			c0.1,1.6,0.7,2.8,1.8,3.6c1.1,0.8,2.4,1.2,4,1.2c1.5,0,2.8-0.3,3.8-0.8s1.5-1.3,1.5-2.3c0-0.8-0.3-1.4-0.9-1.8
			c-0.6-0.4-1.5-0.8-2.7-1.2l-6.9-2c-1.3-0.4-2.6-0.9-3.8-1.5c-1.2-0.6-2.2-1.5-2.9-2.6c-0.7-1.1-1.1-2.6-1.1-4.4
			c0-2.1,0.5-4,1.5-5.6s2.5-2.8,4.4-3.6c1.9-0.9,4.1-1.3,6.7-1.3c3.7,0,6.7,0.9,9,2.7s3.6,4.4,4,7.7H138c-0.6-2.7-2.4-4.1-5.5-4.1
			c-1.5,0-2.6,0.3-3.4,0.9c-0.8,0.6-1.2,1.3-1.2,2.3c0,0.7,0.2,1.3,0.7,1.8s1.3,0.9,2.3,1.2l7.2,2.1c2.7,0.8,4.8,1.9,6,3.3
			c1.3,1.4,1.9,3.2,1.9,5.5c0,2-0.5,3.8-1.6,5.3c-1,1.5-2.5,2.7-4.4,3.5C138.2,62.4,135.9,62.8,133.4,62.8z"/>
		<path class="st2" d="M164.5,62.8c-2.7,0-5.2-0.5-7.2-1.6c-2.1-1.1-3.7-2.6-4.9-4.6s-1.7-4.3-1.7-6.9V29.9h7.6v19.8
			c0,2,0.6,3.7,1.7,4.9c1.1,1.2,2.6,1.8,4.5,1.8s3.5-0.6,4.6-1.8s1.7-2.8,1.7-4.9V29.9h7.6v19.8c0,2.7-0.6,5-1.7,6.9
			c-1.2,2-2.8,3.5-4.8,4.6C169.6,62.2,167.2,62.8,164.5,62.8z"/>
		<path class="st2" d="M202.1,62.8c-1.5,0-2.8-0.5-3.7-1.4s-1.6-2.3-2.1-4l-4.6-18c0-0.1-0.1-0.1-0.1-0.1c-0.1,0-0.1,0.1-0.1,0.1
			v22.7h-7.3V35.9c0-2.1,0.6-3.8,1.8-4.9c1.2-1.2,2.7-1.7,4.5-1.7c3.3,0,5.6,2,6.7,6.1L202,53c0,0.1,0.1,0.1,0.1,0.1
			c0.1,0,0.1,0,0.1-0.1l4.7-17.6c0.5-2,1.4-3.5,2.5-4.6c1.1-1,2.6-1.6,4.3-1.6c1.8,0,3.3,0.6,4.5,1.7c1.2,1.2,1.8,2.8,1.8,4.9V62
			h-7.3V39c0-0.1,0-0.1-0.1-0.1s-0.1,0-0.1,0.1l-4.6,18.3c-0.4,1.7-1.1,3.1-2,4C204.9,62.3,203.7,62.8,202.1,62.8z"/>
		<path class="st2" d="M226.3,62.1V29.9h21.9v6.5h-14.4v6.1h13.5v6.2h-13.5v7h14.4v6.5h-21.9V62.1z"/>
	</g>
</g>
</svg>
