<svg xmlns="http://www.w3.org/2000/svg" width="138" height="82" viewBox="0 0 138 82" fill="none"><path fill-rule="evenodd" clip-rule="evenodd" d="M113.766 17.3944C112.966 15.9813 112.026 14.654 110.979 13.4222C115.705 4.01836 126.535 0.132511 136.085 4.48671C136.766 4.79587 137.565 4.49695 137.879 3.81981C138.186 3.14267 137.889 2.34196 137.209 2.0328C126.611 -2.79943 114.619 1.24992 109.018 11.3531C108.002 10.3851 106.911 9.49266 105.766 8.68119C95.0601 1.10048 79.2928 3.55919 67.204 14.8936C63.4499 18.4153 61.2299 25.3108 60.0631 33.1132C58.7505 41.8864 58.6911 51.8018 58.8477 58.9649C57.3029 54.9155 55.4447 51.0442 53.4191 47.1783C52.8265 46.0476 52.235 44.9122 51.6423 43.7745C44.5153 30.0937 37.2095 16.0695 25.5252 5.71148C24.9635 5.21724 24.11 5.26796 23.6184 5.8248C23.1215 6.38161 23.1756 7.23517 23.7319 7.72888C35.0914 17.8016 42.1858 31.4417 49.1106 44.7558C49.7495 45.9842 50.3869 47.2098 51.0262 48.4296C53.4083 52.9742 55.5527 57.5242 57.211 62.3797C57.2742 62.5632 57.3375 62.7466 57.4008 62.9299C57.8357 64.1891 58.2693 65.4448 58.6371 66.7269C58.6824 66.8872 58.6643 67.1062 58.6457 67.3329C58.6377 67.4305 58.6295 67.5295 58.6263 67.6258C58.6155 68.0871 58.637 68.5198 58.718 68.8306C58.8693 69.3933 59.1935 69.7581 59.5878 69.9653C59.8795 70.1163 60.2413 70.2027 60.6951 70.1217C61.0084 70.0624 61.4567 69.9059 61.7106 69.3038C61.7646 69.1813 61.8618 68.5684 61.8348 67.5357C61.8193 66.9917 61.7913 66.2769 61.7577 65.417C61.5326 59.6654 61.0531 47.4168 62.3641 36.2988C63.331 28.0905 65.1892 20.4828 69.0513 16.8603C80.0868 6.51379 94.4281 3.96224 104.205 10.882C105.518 11.8111 106.744 12.8562 107.862 14.0088C107.446 15.8454 107.327 19.0638 108.121 21.1697C108.537 22.2715 109.196 23.0932 110.039 23.5114C110.914 23.9468 112.048 24.0218 113.469 23.302C114.538 22.7592 114.954 21.7286 114.846 20.5071C114.749 19.3606 114.122 18.0235 113.766 17.3944ZM111.416 18.7234C111.038 18.0619 110.633 17.4219 110.195 16.8047C110.163 17.9674 110.282 19.2505 110.649 20.2185C110.795 20.6042 110.946 20.9495 111.243 21.0963C111.481 21.2156 111.773 21.127 112.145 20.9436C112.145 20.8303 112.14 20.5854 112.108 20.4289C111.962 19.7609 111.616 19.0784 111.416 18.7234ZM50.2914 21.6051C48.5304 15.5756 45.0626 10.8588 39.7474 7.45261C39.1208 7.05065 38.9372 6.21544 39.3423 5.58901C39.742 4.96261 40.5793 4.78021 41.2059 5.18217C47.0882 8.95367 50.9342 14.1733 52.8842 20.8492C53.0948 21.5636 52.6789 22.3135 51.9658 22.5218C51.2474 22.7306 50.4966 22.3195 50.2914 21.6051ZM26.5083 52.657C31.575 53.9676 35.7667 56.6119 39.6072 60.1416C40.1528 60.6456 41.0116 60.6095 41.514 60.0618C42.0217 59.5136 41.9839 58.6595 41.433 58.1555C37.2575 54.3199 32.6932 51.4699 27.1835 50.0455C26.4651 49.8588 25.7251 50.2921 25.5361 51.0129C25.3524 51.7338 25.7845 52.4703 26.5083 52.657ZM32.6946 78.1058L32.695 78.1058L32.6954 78.1058C34.6341 78.0811 36.5703 78.0565 38.4999 78.01C39.2453 77.9884 39.8395 77.3733 39.8179 76.6288C39.8017 75.8842 39.1805 75.2907 38.4351 75.3122C36.5658 75.357 34.6906 75.3833 32.813 75.4097C22.0271 75.5609 11.1628 75.7133 0.893974 79.3805C0.191734 79.6341 -0.170159 80.4056 0.0783305 81.1071C0.332191 81.8085 1.10458 82.17 1.80682 81.9218C11.7425 78.3725 22.2544 78.2387 32.6946 78.1058Z" fill="#072032"></path></svg>