<?xml version="1.0" encoding="utf-8"?>
<!-- Generator: Adobe Illustrator 27.3.1, SVG Export Plug-In . SVG Version: 6.00 Build 0)  -->
<svg version="1.1" id="Layer_1" xmlns="http://www.w3.org/2000/svg" xmlns:xlink="http://www.w3.org/1999/xlink" x="0px" y="0px"
	 viewBox="0 0 1600 2200" style="enable-background:new 0 0 1600 2200;" xml:space="preserve">
<style type="text/css">
	.st0{fill:url(#SVGID_1_);}
	.st1{fill:url(#SVGID_00000079474891895530466880000001602403886717119647_);}
	.st2{fill:url(#SVGID_00000013166124974838837080000016245521962616300681_);}
	.st3{fill:url(#SVGID_00000072260061073098601690000010271707654698337935_);}
	.st4{fill:url(#SVGID_00000145032626468747329230000000023649342047088274_);}
	.st5{fill:url(#SVGID_00000111905596545038956980000007870083792708646022_);}
	.st6{fill:url(#SVGID_00000026120902785857694460000017313548805974422708_);}
	.st7{fill:url(#SVGID_00000182504238256931946900000002487964545690198400_);}
	.st8{fill:url(#SVGID_00000052067263460110955640000013185087427538503851_);}
	.st9{opacity:0.5;fill:#5459A7;}
	.st10{fill:url(#SVGID_00000144333522011276849200000018439139679287211681_);}
	.st11{fill:url(#SVGID_00000069385385096581718300000017082779895455400098_);}
	.st12{fill:url(#SVGID_00000077283199067280636110000017106372978989599370_);}
	.st13{fill:url(#SVGID_00000134970185565404134190000018375444264796996282_);}
	.st14{fill:url(#SVGID_00000023268768656682400840000004919522326203167137_);}
	.st15{fill:url(#SVGID_00000117663801565272118560000011357207623389644182_);}
	.st16{fill:#5459A7;}
</style>
<linearGradient id="SVGID_1_" gradientUnits="userSpaceOnUse" x1="8194.415" y1="-6941.2002" x2="8287.5586" y2="-6941.2002" gradientTransform="matrix(-0.342 0.9397 -0.9397 -0.342 -4597.8359 -9063.9189)">
	<stop  offset="0" style="stop-color:#C9C9C9"/>
	<stop  offset="1" style="stop-color:#FFFFFF"/>
</linearGradient>
<path class="st0" d="M-849.2,1068.2l-1.4,3.8l-8.9-3.2l1.4-3.8L-849.2,1068.2z M-863.2,1075.5l-2.5,3.2l7.4,5.8l2.5-3.2
	L-863.2,1075.5z M-869.6,1093.9l3.4-2.2l-5.2-7.9l-3.4,2.2L-869.6,1093.9z M-885.7,1090.4l2.5,9.1l3.9-1.1l-2.5-9.1L-885.7,1090.4z
	 M-897.4,1091l-0.4,9.4l4,0.2l0.4-9.4L-897.4,1091z M-904.9,1089.4l-3.8-1.4l-3.3,8.8l3.8,1.4L-904.9,1089.4z M-918.5,1081.6
	l-5.9,7.4l3.2,2.5l5.9-7.4L-918.5,1081.6z M-925.9,1072.5l-7.9,5.1l2.2,3.4l7.9-5.1L-925.9,1072.5z M-930,1061.5l-9.1,2.4l1,3.9
	l9.1-2.4L-930,1061.5z M-930.5,1049.8l-9.4-0.5l-0.2,4l9.4,0.5L-930.5,1049.8z M-936.2,1035.1l-1.5,3.8l8.8,3.4l1.5-3.8
	L-936.2,1035.1z M-928.1,1022.8l-2.6,3.1l7.3,6l2.6-3.1L-928.1,1022.8z M-916.7,1013.6l-3.4,2.2l5,8l3.4-2.2L-916.7,1013.6z
	 M-900.6,1017.5l-2.3-9.2l-3.9,1l2.3,9.2L-900.6,1017.5z M-888.9,1017.2l0.6-9.4l-4-0.3l-0.7,9.4L-888.9,1017.2z M-877.7,1020.5
	l3.6-8.8l-3.8-1.5l-3.5,8.8L-877.7,1020.5z M-868,1027.1l6.1-7.2l-3.1-2.6l-6.1,7.2L-868,1027.1z M-860.9,1036.4l8-5l-2.1-3.4l-8,5
	L-860.9,1036.4z M-848.8,1041.3l-9.2,2.2l0.9,3.9l9.2-2.2L-848.8,1041.3z M-847,1055.9l-9.4-0.8l-0.3,4l9.4,0.8L-847,1055.9z"/>
<linearGradient id="SVGID_00000077295686862270920120000015538102202643342981_" gradientUnits="userSpaceOnUse" x1="5710.5522" y1="-11239.0322" x2="5893.6235" y2="-11239.0322" gradientTransform="matrix(-0.8572 0.515 -0.515 -0.8572 -1218.3286 -11946.2559)">
	<stop  offset="0" style="stop-color:#C9C9C9"/>
	<stop  offset="1" style="stop-color:#FFFFFF"/>
</linearGradient>
<path style="fill:url(#SVGID_00000077295686862270920120000015538102202643342981_);" d="M-450.9,597.5c43.3-26,99.6-12,125.6,31.3
	c26,43.3,11.9,99.6-31.3,125.6c-43.3,26-99.6,11.9-125.6-31.3C-508.2,679.8-494.2,623.5-450.9,597.5z M-371.8,729.1
	c29.3-17.6,38.9-55.8,21.2-85.1c-17.6-29.3-55.8-38.8-85.1-21.2c-29.3,17.6-38.9,55.8-21.2,85.1
	C-439.3,737.2-401.1,746.7-371.8,729.1z"/>
<linearGradient id="SVGID_00000021835142751113529360000008250090964564952970_" gradientUnits="userSpaceOnUse" x1="4164.2534" y1="-12522.7607" x2="4414.3511" y2="-12522.7607" gradientTransform="matrix(-0.9781 0.2079 -0.2079 -0.9781 681.1264 -12354.917)">
	<stop  offset="0" style="stop-color:#C9C9C9"/>
	<stop  offset="1" style="stop-color:#FFFFFF"/>
</linearGradient>
<path style="fill:url(#SVGID_00000021835142751113529360000008250090964564952970_);" d="M-881.6,902.8l-8,1.7l-50.3-236.7l8-1.7
	L-881.6,902.8z M-901,666.4l-8,1.7l47.5,223.7l8-1.7L-901,666.4z M-869.1,670.7l-8,1.7l43,202.5l8-1.7L-869.1,670.7z M-834.1,690
	l-8,1.7L-810,843l8-1.7L-834.1,690z M-795.5,726.4l-8,1.7l14,65.9l8-1.7L-795.5,726.4z M-960.1,678.9l-8,1.7l47.6,223.7l8-1.7
	L-960.1,678.9z M-987.4,695.8l-8,1.7l43,202.5l8-1.7L-987.4,695.8z M-1011.6,727.7l-8,1.7l32.2,151.3l8-1.7L-1011.6,727.7z
	 M-1018.1,842.6l-14-65.9l-8,1.7l14,65.9L-1018.1,842.6z"/>
<linearGradient id="SVGID_00000082360988647008978350000010279970736167900601_" gradientUnits="userSpaceOnUse" x1="-5400.5288" y1="-3702.3303" x2="-5232.2954" y2="-3702.3303" gradientTransform="matrix(0.5299 -0.848 0.848 0.5299 5754.52 -1901.1018)">
	<stop  offset="0" style="stop-color:#C9C9C9"/>
	<stop  offset="1" style="stop-color:#FFFFFF"/>
</linearGradient>
<path style="fill:url(#SVGID_00000082360988647008978350000010279970736167900601_);" d="M-195.1,561.5l65,40.6
	c-6.6-11.1-15.9-20.8-27.6-28.2S-182.2,562.6-195.1,561.5z M-165.9,721.2c3.5-1.7,6.9-3.6,10.2-5.7l-129.8-81.1
	c-0.5,3.9-0.7,7.8-0.7,11.6L-165.9,721.2z M-147.5,709.2c2.6-2.3,5.2-4.7,7.6-7.4l-140.4-87.8c-1.3,3.3-2.4,6.7-3.3,10L-147.5,709.2
	z M-209.4,729.2l-65-40.6c6.6,11.1,15.9,20.8,27.6,28.1C-235.1,724-222.3,728.1-209.4,729.2z M-281.9,672.4l90.3,56.4
	c4.9-0.6,9.7-1.7,14.4-3.1l-108.1-67.6C-284.6,663-283.5,667.7-281.9,672.4z M-118.8,656.3c0.5-3.9,0.7-7.8,0.7-11.7l-120.4-75.2
	c-3.5,1.7-6.9,3.6-10.2,5.7L-118.8,656.3z M-227.2,565l108.1,67.6c-0.7-4.9-1.9-9.6-3.5-14.3l-90.3-56.4
	C-217.7,562.5-222.5,563.6-227.2,565z M-276.1,605.2l142.4,89c1-1.4,1.9-2.8,2.8-4.3c0.9-1.5,1.8-2.9,2.6-4.4l-142.4-89
	c-1,1.4-1.9,2.8-2.8,4.3C-274.5,602.2-275.3,603.7-276.1,605.2z M-124.1,676.6c1.3-3.3,2.4-6.7,3.3-10L-257,581.5
	c-2.7,2.3-5.2,4.7-7.6,7.4L-124.1,676.6z"/>
<linearGradient id="SVGID_00000176735688464422555090000013546322858112108967_" gradientUnits="userSpaceOnUse" x1="6462.3335" y1="-1203.0328" x2="6576.3652" y2="-1203.0328" gradientTransform="matrix(0.6947 0.7193 -0.7193 0.6947 -4044.9182 -2752.9995)">
	<stop  offset="0" style="stop-color:#C9C9C9"/>
	<stop  offset="1" style="stop-color:#FFFFFF"/>
</linearGradient>
<path style="fill:url(#SVGID_00000176735688464422555090000013546322858112108967_);" d="M1372.2,1049.2c-1.9,1.9-5,1.8-6.9-0.1
	c-1.9-1.9-1.8-5,0.1-6.9c1.9-1.9,5-1.8,6.9,0.1C1374.2,1044.2,1374.1,1047.3,1372.2,1049.2z M1390.4,1061c-1.9-1.9-5-2-6.9-0.1
	c-1.9,1.9-2,5-0.1,6.9c1.9,1.9,5,2,6.9,0.1C1392.2,1066,1392.3,1062.9,1390.4,1061z M1408.5,1079.8c-1.9-1.9-5-2-6.9-0.1
	c-1.9,1.9-2,5-0.1,6.9c1.9,1.9,5,2,6.9,0.1C1410.4,1084.8,1410.4,1081.7,1408.5,1079.8z M1335.5,1041.6c-1.9-1.9-5-2-6.9-0.1
	c-1.9,1.9-2,5-0.1,6.9c1.9,1.9,5,2,6.9,0.1C1337.3,1046.6,1337.3,1043.6,1335.5,1041.6z M1353.6,1060.4c-1.9-1.9-5-2-6.9-0.1
	c-1.9,1.9-2,5-0.1,6.9c1.9,1.9,5,2,6.9,0.1C1355.4,1065.4,1355.4,1062.3,1353.6,1060.4z M1371.7,1079.1c-1.9-1.9-5-2-6.9-0.1
	c-1.9,1.9-2,5-0.1,6.9c1.9,1.9,5,2,6.9,0.1C1373.5,1084.2,1373.5,1081.1,1371.7,1079.1z M1389.8,1097.9c-1.9-1.9-5-2-6.9-0.1
	c-1.9,1.9-2,5-0.1,6.9c1.9,1.9,5,2,6.9,0.1C1391.6,1102.9,1391.7,1099.8,1389.8,1097.9z M1400.9,1123.4c1.9,1.9,5,2,6.9,0.1
	c1.9-1.9,2-5,0.1-6.9c-1.9-1.9-5-2-6.9-0.1C1399.1,1118.4,1399,1121.5,1400.9,1123.4z M1316.7,1059.7c-1.9-1.9-5-2-6.9-0.1
	c-1.9,1.9-2,5-0.1,6.9c1.9,1.9,4.9,2,6.9,0.1C1318.5,1064.8,1318.6,1061.7,1316.7,1059.7z M1334.8,1078.5c-1.9-1.9-5-2-6.9-0.1
	c-1.9,1.9-2,5-0.1,6.9c1.9,1.9,5,2,6.9,0.1C1336.6,1083.5,1336.7,1080.4,1334.8,1078.5z M1352.9,1097.2c-1.9-1.9-5-2-6.9-0.1
	c-1.9,1.9-2,5-0.1,6.9c1.9,1.9,5,2,6.9,0.1C1354.7,1102.3,1354.8,1099.2,1352.9,1097.2z M1371,1116c-1.9-1.9-5-2-6.9-0.1
	c-1.9,1.9-2,5-0.1,6.9c1.9,1.9,5,2,6.9,0.1C1372.9,1121,1372.9,1117.9,1371,1116z M1389.1,1134.7c-1.9-1.9-5-2-6.9-0.1
	c-1.9,1.9-2,5-0.1,6.9c1.9,1.9,5,2,6.9,0.1C1391,1139.8,1391,1136.7,1389.1,1134.7z M1298,1077.8c-1.9-1.9-5-2-6.9-0.1
	c-1.9,1.9-2,5-0.1,6.9c1.9,1.9,5,2,6.9,0.1C1299.8,1082.9,1299.8,1079.8,1298,1077.8z M1316.1,1096.6c-1.9-1.9-5-2-6.9-0.1
	c-1.9,1.9-2,5-0.1,6.9c1.9,1.9,5,2,6.9,0.1C1317.9,1101.6,1317.9,1098.5,1316.1,1096.6z M1334.2,1115.3c-1.9-1.9-5-2-6.9-0.1
	c-1.9,1.9-2,5-0.1,6.9c1.9,1.9,5,2,6.9,0.1C1336,1120.4,1336,1117.3,1334.2,1115.3z M1352.3,1134.1c-1.9-1.9-5-2-6.9-0.1
	c-1.9,1.9-2,5-0.1,6.9c1.9,1.9,5,2,6.9,0.1C1354.1,1139.1,1354.2,1136,1352.3,1134.1z M1370.4,1152.8c-1.9-1.9-5-2-6.9-0.1
	c-1.9,1.9-2,5-0.1,6.9c1.9,1.9,5,2,6.9,0.1C1372.2,1157.9,1372.3,1154.8,1370.4,1152.8z M1297.3,1114.7c-1.9-1.9-5-2-6.9-0.1
	c-1.9,1.9-2,5-0.1,6.9c1.9,1.9,5,2,6.9,0.1C1299.1,1119.7,1299.2,1116.6,1297.3,1114.7z M1315.4,1133.4c-1.9-1.9-5-2-6.9-0.1
	c-1.9,1.9-2,5-0.1,6.9c1.9,1.9,5,2,6.9,0.1C1317.2,1138.5,1317.3,1135.4,1315.4,1133.4z M1333.5,1152.2c-1.9-1.9-5-2-6.9-0.1
	c-1.9,1.9-2,5-0.1,6.9c1.9,1.9,5,2,6.9,0.1C1335.3,1157.2,1335.4,1154.1,1333.5,1152.2z"/>
<linearGradient id="SVGID_00000014595299659926413290000002509112417593053617_" gradientUnits="userSpaceOnUse" x1="6930.8813" y1="-2679.0815" x2="7122.7876" y2="-2679.0815" gradientTransform="matrix(0.225 0.9744 -0.9744 0.225 -4993.979 -6004.5747)">
	<stop  offset="0" style="stop-color:#C9C9C9"/>
	<stop  offset="1" style="stop-color:#FFFFFF"/>
</linearGradient>
<path style="fill:url(#SVGID_00000014595299659926413290000002509112417593053617_);" d="M-737.4,224.6c8.3,35.8-14.2,71.7-50,80
	c-35.8,8.3-71.7-14.1-80-50c-8.3-35.8,14.1-71.7,50-80C-781.6,166.3-745.7,188.7-737.4,224.6 M-709,218
	c-11.9-51.6-63.4-83.8-115.1-71.9c-51.6,11.9-83.8,63.4-71.9,115.1c11.9,51.6,63.4,83.8,115.1,71.9C-729.2,321.2-697,269.6-709,218
	L-709,218z"/>
<linearGradient id="SVGID_00000090289245425213976680000000539579752475016357_" gradientUnits="userSpaceOnUse" x1="-264.6125" y1="-13587.3447" x2="-161.7359" y2="-13587.3447" gradientTransform="matrix(-0.9063 -0.4226 0.4226 -0.9063 4701.7666 -11241.0605)">
	<stop  offset="0" style="stop-color:#C9C9C9"/>
	<stop  offset="1" style="stop-color:#FFFFFF"/>
</linearGradient>
<path style="fill:url(#SVGID_00000090289245425213976680000000539579752475016357_);" d="M-795.6,1163.3c0-0.4,0-0.9,0-1.3
	l-91.7,33.4c0.3,0.4,0.6,0.7,0.8,1L-795.6,1163.3z M-795.7,1159.3c0-0.4-0.1-0.9-0.1-1.3l-93.8,34.1c0.2,0.4,0.5,0.7,0.7,1.1
	L-795.7,1159.3z M-796.9,1151.5c-0.1-0.4-0.2-0.8-0.3-1.2l-96.2,35c0.2,0.4,0.4,0.7,0.6,1.1L-796.9,1151.5z M-795.8,1167.4
	c0-0.5,0.1-0.9,0.1-1.4l-88.9,32.4c0.3,0.3,0.6,0.7,1,1L-795.8,1167.4z M-798,1147.8c-0.1-0.4-0.3-0.8-0.4-1.2l-96.7,35.2
	c0.2,0.4,0.3,0.8,0.5,1.2L-798,1147.8z M-796.2,1155.3c-0.1-0.4-0.1-0.8-0.2-1.3l-95.3,34.7c0.2,0.4,0.4,0.7,0.6,1.1L-796.2,1155.3z
	 M-796.3,1171.7c0.1-0.5,0.2-0.9,0.2-1.4l-85.5,31.1c0.4,0.3,0.7,0.6,1.1,0.9L-796.3,1171.7z M-813.7,1202.4
	c0.8-0.7,1.7-1.5,2.5-2.2l-39.4,14.4c1.1,0.1,2.2,0.1,3.3,0.1L-813.7,1202.4z M-822.1,1208.2l-15.1,5.5c2.6-0.5,5.2-1.2,7.8-2.2
	C-826.9,1210.6-824.4,1209.5-822.1,1208.2z M-807.5,1196.1c0.5-0.6,1-1.2,1.5-1.9l-52.6,19.1c0.8,0.2,1.6,0.3,2.3,0.5L-807.5,1196.1
	z M-800.7,1185.5c0.3-0.5,0.5-1.1,0.7-1.6l-70,25.5c0.5,0.3,1.1,0.5,1.6,0.7L-800.7,1185.5z M-803.5,1190.6c0.3-0.6,0.7-1.1,1-1.7
	l-62.3,22.7c0.6,0.2,1.3,0.4,1.9,0.7L-803.5,1190.6z M-798.6,1180.7c0.2-0.5,0.4-1,0.5-1.5l-76.2,27.7c0.5,0.3,0.9,0.6,1.4,0.8
	L-798.6,1180.7z M-797.2,1176.1c0.1-0.5,0.3-1,0.4-1.5l-81.3,29.6c0.4,0.3,0.8,0.6,1.2,0.9L-797.2,1176.1z M-802.6,1137.3
	c-0.2-0.4-0.4-0.7-0.7-1.1l-94.7,34.5c0.1,0.4,0.1,0.8,0.2,1.3L-802.6,1137.3z M-830,1114.7c-0.6-0.2-1.3-0.4-1.9-0.6l-58.3,21.2
	c-0.4,0.6-0.7,1.2-1.1,1.7L-830,1114.7z M-820.3,1119.3c-0.5-0.3-0.9-0.6-1.4-0.8l-73.6,26.8c-0.2,0.5-0.4,1-0.5,1.5L-820.3,1119.3z
	 M-824.8,1116.9c-0.5-0.3-1.1-0.5-1.6-0.8l-66.8,24.3c-0.3,0.5-0.5,1.1-0.8,1.6L-824.8,1116.9z M-836.3,1112.9
	c-0.8-0.2-1.6-0.3-2.4-0.5l-47.3,17.2c-0.5,0.6-1.1,1.3-1.6,1.9L-836.3,1112.9z M-799.2,1144.2c-0.2-0.4-0.3-0.8-0.5-1.2l-96.5,35.1
	c0.1,0.4,0.3,0.8,0.4,1.2L-799.2,1144.2z M-844.5,1111.8c-1.2-0.1-2.4-0.1-3.5-0.1l-31.3,11.4c-0.9,0.7-1.8,1.5-2.7,2.3
	L-844.5,1111.8z M-868.7,1116.6l8.2-3c-1.4,0.4-2.8,0.8-4.2,1.3C-866,1115.4-867.4,1116-868.7,1116.6z M-804.7,1134
	c-0.2-0.4-0.5-0.7-0.7-1.1l-92.9,33.8c0,0.4,0.1,0.9,0.1,1.3L-804.7,1134z M-807.1,1130.8c-0.3-0.3-0.6-0.7-0.9-1l-90.5,33
	c0,0.4,0,0.9,0,1.3L-807.1,1130.8z M-800.8,1140.7c-0.2-0.4-0.4-0.8-0.6-1.1l-95.9,34.9c0.1,0.4,0.2,0.8,0.3,1.2L-800.8,1140.7z
	 M-816.3,1122c-0.4-0.3-0.8-0.6-1.2-0.9l-79.1,28.8c-0.1,0.5-0.3,1-0.4,1.5L-816.3,1122z M-812.9,1124.8c-0.4-0.3-0.7-0.6-1.1-0.9
	l-83.7,30.5c-0.1,0.5-0.2,1-0.2,1.4L-812.9,1124.8z M-809.8,1127.7c-0.3-0.3-0.6-0.7-1-1l-87.5,31.9c0,0.5-0.1,0.9-0.1,1.4
	L-809.8,1127.7z"/>
<linearGradient id="SVGID_00000029744340059371709570000000785958471672426385_" gradientUnits="userSpaceOnUse" x1="-2021.6583" y1="314.7904" x2="-1926.3671" y2="314.7904" gradientTransform="matrix(0.9903 -0.1392 0.1392 0.9903 870.9712 69.5005)">
	<stop  offset="0" style="stop-color:#101342"/>
	<stop  offset="1" style="stop-color:#323A81"/>
</linearGradient>
<path style="fill:url(#SVGID_00000029744340059371709570000000785958471672426385_);" d="M-992.9,649.4
	c-3.7-26.1-27.7-44.2-53.8-40.5c-26.1,3.7-44.2,27.7-40.6,53.8c3.7,26.1,27.8,44.2,53.8,40.6C-1007.4,699.5-989.2,675.4-992.9,649.4
	z"/>
<linearGradient id="SVGID_00000144322255285923348170000001106951737023522444_" gradientUnits="userSpaceOnUse" x1="7334.3262" y1="-2853.2354" x2="7429.5903" y2="-2853.2354" gradientTransform="matrix(0.3584 0.9336 -0.9336 0.3584 -5217.6587 -4787.6284)">
	<stop  offset="0" style="stop-color:#101342"/>
	<stop  offset="1" style="stop-color:#323A81"/>
</linearGradient>
<path style="fill:url(#SVGID_00000144322255285923348170000001106951737023522444_);" d="M135.6,1062.7l1.5,3.9l-9,3.5l-1.5-3.9
	L135.6,1062.7z M129.6,1077.8l0.2,4.1l9.6-0.5l-0.2-4.1L129.6,1077.8z M137.2,1096.2l1.1-4l-9.3-2.5l-1.1,4L137.2,1096.2z
	 M122.3,1104.3l8.1,5.3l2.3-3.5l-8.1-5.3L122.3,1104.3z M113.7,1112.7l6,7.6l3.2-2.6l-6-7.6L113.7,1112.7z M106.8,1116.5l-3.9,1.4
	l3.4,9.1l3.9-1.4L106.8,1116.5z M91.1,1119.6l0.4,9.7l4.1-0.2l-0.4-9.7L91.1,1119.6z M79.3,1117.4l-2.7,9.3l4,1.1l2.7-9.3
	L79.3,1117.4z M68.7,1111.8l-5.4,8l3.4,2.3l5.4-8L68.7,1111.8z M60.5,1103.1l-7.6,5.9l2.5,3.3l7.6-5.9L60.5,1103.1z M46.2,1095.5
	l1.4,3.9l9.1-3.2l-1.4-3.9L46.2,1095.5z M44.2,1080.6l0.1,4.1l9.7-0.2l-0.1-4.1L44.2,1080.6z M46.9,1065.8l-1.2,4l9.2,2.8l1.2-4
	L46.9,1065.8z M61.9,1058.1l-7.9-5.5l-2.4,3.4l7.9,5.5L61.9,1058.1z M70.7,1050l-5.8-7.7l-3.3,2.5l5.8,7.7L70.7,1050z M81.6,1045
	l-3.1-9.1l-3.9,1.3l3.1,9.1L81.6,1045z M93.5,1043.6l-0.1-9.7l-4.1,0.1l0.1,9.7L93.5,1043.6z M105.3,1046l2.9-9.2l-3.9-1.2l-2.9,9.2
	L105.3,1046z M117.9,1041.7l-5.6,7.9l3.4,2.4l5.6-7.9L117.9,1041.7z M129,1051.8l-7.8,5.7l2.4,3.3l7.8-5.7L129,1051.8z"/>
<path class="st9" d="M113.5,637.5c-3.9-21.9,10.8-42.9,32.7-46.7c21.9-3.9,42.9,10.8,46.7,32.7c3.9,21.9-10.8,42.9-32.7,46.7
	C138.3,674.1,117.3,659.4,113.5,637.5z M180.1,625.7c-2.6-14.9-16.8-24.8-31.7-22.2c-14.9,2.6-24.8,16.8-22.2,31.7
	c2.6,14.9,16.8,24.8,31.7,22.2C172.8,654.8,182.8,640.6,180.1,625.7z"/>
<linearGradient id="SVGID_00000141418745281187743460000002336228691148476547_" gradientUnits="userSpaceOnUse" x1="-4977.1479" y1="-2388.1997" x2="-4823.23" y2="-2388.1997" gradientTransform="matrix(0.7314 -0.682 0.682 0.7314 4487.7446 -987.6581)">
	<stop  offset="0" style="stop-color:#101342"/>
	<stop  offset="1" style="stop-color:#323A81"/>
</linearGradient>
<path style="fill:url(#SVGID_00000141418745281187743460000002336228691148476547_);" d="M-777.6,554.8l3.7-3.4l101.5,108.9
	l-3.7,3.4L-777.6,554.8z M-692.5,673.4l3.7-3.4l-96-102.9l-3.7,3.4L-692.5,673.4z M-710.6,681.2l3.7-3.4l-86.9-93.2l-3.7,3.4
	L-710.6,681.2z M-735.2,682.1l3.7-3.4l-64.9-69.6l-3.7,3.4L-735.2,682.1z M-767.1,675.2l3.7-3.4l-28.3-30.3l-3.7,3.4L-767.1,675.2z
	 M-665.3,648l3.7-3.4l-96-102.9l-3.7,3.4L-665.3,648z M-656.2,630.5l3.7-3.4l-86.9-93.2l-3.7,3.4L-656.2,630.5z M-653.6,606l3.7-3.4
	l-64.9-69.6l-3.7,3.4L-653.6,606z M-686.5,543.3l28.3,30.3l3.7-3.4l-28.3-30.3L-686.5,543.3z"/>
<linearGradient id="SVGID_00000006696472987024991390000000342214248143832201_" gradientUnits="userSpaceOnUse" x1="-4574.3145" y1="-1373.3284" x2="-4495.1372" y2="-1373.3284" gradientTransform="matrix(0.8387 -0.5446 0.5446 0.8387 3558.7642 -364.998)">
	<stop  offset="0" style="stop-color:#101342"/>
	<stop  offset="1" style="stop-color:#323A81"/>
</linearGradient>
<path style="fill:url(#SVGID_00000006696472987024991390000000342214248143832201_);" d="M-972.7,918.5l19.7,30.3
	c-0.6-6.1-2.6-12.1-6.2-17.5C-962.8,925.8-967.4,921.5-972.7,918.5z M-992,992.4c1.8,0,3.7-0.2,5.5-0.4l-39.2-60.4
	c-1,1.6-1.9,3.2-2.6,4.8L-992,992.4z M-981.8,990.9c1.6-0.4,3.1-1,4.7-1.6l-42.4-65.4c-1.2,1.1-2.4,2.4-3.4,3.6L-981.8,990.9z
	 M-1012.2,987.1l-19.7-30.3c0.6,6,2.6,12.1,6.2,17.5C-1022.1,979.8-1017.4,984.1-1012.2,987.1z M-1031.8,948.5l27.3,42
	c2.2,0.7,4.5,1.2,6.7,1.5l-32.7-50.3C-1031.1,943.9-1031.5,946.2-1031.8,948.5z M-959,974.1c1-1.6,1.9-3.2,2.6-4.8l-36.4-56
	c-1.8,0-3.7,0.2-5.5,0.4L-959,974.1z M-987.1,913.6l32.7,50.3c0.6-2.2,1.1-4.5,1.3-6.8l-27.3-42
	C-982.6,914.4-984.8,913.9-987.1,913.6z M-1016,921l43,66.3c0.7-0.4,1.4-0.8,2.1-1.2c0.7-0.4,1.3-0.9,2-1.4l-43-66.3
	c-0.7,0.4-1.4,0.8-2.1,1.3C-1014.7,920-1015.3,920.5-1016,921z M-965.3,981.7c1.2-1.1,2.4-2.4,3.4-3.6l-41.2-63.4
	c-1.6,0.4-3.1,1-4.7,1.6L-965.3,981.7z"/>
<linearGradient id="SVGID_00000016778005522098912120000004585240541757066417_" gradientUnits="userSpaceOnUse" x1="5267.8311" y1="-1289.047" x2="5353.2783" y2="-1289.047" gradientTransform="matrix(0.6428 0.766 -0.766 0.6428 -4305.5386 -3145.9949)">
	<stop  offset="0" style="stop-color:#101342"/>
	<stop  offset="1" style="stop-color:#323A81"/>
</linearGradient>
<path style="fill:url(#SVGID_00000016778005522098912120000004585240541757066417_);" d="M115.2,56c-1.5,1.3-3.9,1.1-5.2-0.4
	c-1.3-1.5-1.1-3.9,0.4-5.2c1.6-1.3,3.9-1.1,5.2,0.4S116.8,54.7,115.2,56z M128.2,65.8c-1.3-1.5-3.6-1.7-5.2-0.4
	c-1.5,1.3-1.8,3.6-0.5,5.2c1.3,1.5,3.6,1.7,5.2,0.4C129.3,69.7,129.5,67.4,128.2,65.8z M140.8,80.8c-1.3-1.5-3.6-1.7-5.2-0.4
	s-1.8,3.6-0.5,5.2c1.3,1.5,3.6,1.7,5.2,0.5C141.9,84.6,142.1,82.3,140.8,80.8z M88.2,48.5c-1.3-1.5-3.6-1.8-5.2-0.4
	c-1.5,1.3-1.8,3.6-0.4,5.2c1.3,1.5,3.6,1.7,5.1,0.4C89.2,52.3,89.4,50,88.2,48.5z M100.7,63.4c-1.3-1.5-3.6-1.7-5.2-0.4
	c-1.5,1.3-1.7,3.6-0.4,5.1c1.3,1.5,3.6,1.7,5.1,0.4C101.8,67.3,102,65,100.7,63.4z M113.3,78.4c-1.3-1.5-3.6-1.7-5.2-0.4
	c-1.5,1.3-1.8,3.6-0.4,5.2c1.3,1.5,3.6,1.7,5.1,0.5C114.4,82.2,114.6,79.9,113.3,78.4z M125.8,93.4c-1.3-1.5-3.6-1.8-5.2-0.5
	c-1.5,1.3-1.7,3.6-0.5,5.1c1.3,1.5,3.6,1.8,5.2,0.5C126.9,97.2,127.1,94.9,125.8,93.4z M132.8,113c1.3,1.5,3.6,1.8,5.2,0.5
	c1.5-1.3,1.8-3.6,0.4-5.2c-1.3-1.5-3.6-1.7-5.1-0.4C131.7,109.2,131.5,111.5,132.8,113z M73.2,61c-1.3-1.5-3.6-1.8-5.2-0.5
	c-1.5,1.3-1.7,3.6-0.4,5.2c1.3,1.5,3.6,1.7,5.1,0.4C74.3,64.9,74.5,62.6,73.2,61z M85.7,76c-1.3-1.5-3.6-1.7-5.1-0.4
	c-1.5,1.3-1.7,3.6-0.5,5.1c1.3,1.5,3.6,1.7,5.1,0.4C86.8,79.8,87,77.5,85.7,76z M98.3,90.9c-1.3-1.5-3.6-1.8-5.2-0.4
	c-1.5,1.3-1.7,3.6-0.4,5.1c1.3,1.5,3.6,1.7,5.2,0.4C99.4,94.8,99.6,92.5,98.3,90.9z M110.9,105.9c-1.3-1.5-3.6-1.7-5.1-0.4
	c-1.5,1.3-1.7,3.6-0.4,5.1c1.3,1.5,3.6,1.8,5.2,0.5C112,109.8,112.2,107.5,110.9,105.9z M123.4,120.9c-1.3-1.5-3.6-1.7-5.1-0.4
	c-1.5,1.3-1.8,3.6-0.5,5.1c1.3,1.5,3.6,1.7,5.1,0.4C124.5,124.7,124.7,122.4,123.4,120.9z M58.2,73.6c-1.3-1.5-3.6-1.8-5.2-0.5
	c-1.5,1.3-1.7,3.6-0.5,5.2c1.3,1.5,3.6,1.7,5.2,0.4C59.3,77.4,59.5,75.1,58.2,73.6z M70.8,88.5c-1.3-1.5-3.6-1.7-5.2-0.4
	c-1.5,1.3-1.7,3.6-0.4,5.2c1.3,1.5,3.6,1.7,5.1,0.4C71.9,92.4,72.1,90.1,70.8,88.5z M83.3,103.5c-1.3-1.5-3.6-1.7-5.2-0.4
	c-1.5,1.3-1.7,3.6-0.4,5.2c1.3,1.5,3.6,1.7,5.2,0.4C84.4,107.4,84.6,105,83.3,103.5z M95.9,118.5c-1.3-1.5-3.6-1.7-5.1-0.4
	c-1.5,1.3-1.7,3.6-0.5,5.2c1.3,1.5,3.6,1.8,5.2,0.5C97,122.3,97.2,120,95.9,118.5z M108.4,133.4c-1.3-1.5-3.6-1.7-5.2-0.4
	c-1.5,1.3-1.7,3.6-0.5,5.1c1.3,1.5,3.6,1.7,5.1,0.4C109.5,137.3,109.7,135,108.4,133.4z M55.8,101.1c-1.3-1.5-3.6-1.7-5.2-0.4
	c-1.5,1.3-1.7,3.6-0.4,5.1c1.3,1.5,3.6,1.7,5.1,0.4C56.9,104.9,57.1,102.6,55.8,101.1z M68.4,116.1c-1.3-1.5-3.6-1.7-5.2-0.4
	c-1.5,1.3-1.7,3.6-0.4,5.1c1.3,1.5,3.6,1.7,5.2,0.4C69.5,119.9,69.7,117.6,68.4,116.1z M80.9,131c-1.3-1.5-3.6-1.7-5.2-0.4
	c-1.5,1.3-1.7,3.6-0.4,5.1c1.3,1.5,3.6,1.8,5.2,0.5C82,134.9,82.2,132.6,80.9,131z"/>
<linearGradient id="SVGID_00000030470446855429373790000016094129309931621508_" gradientUnits="userSpaceOnUse" x1="5308.8564" y1="-12136.9736" x2="5399.1396" y2="-12136.9736" gradientTransform="matrix(-0.9205 0.3907 -0.3907 -0.9205 35.455 -12387.2402)">
	<stop  offset="0" style="stop-color:#101342"/>
	<stop  offset="1" style="stop-color:#323A81"/>
</linearGradient>
<path style="fill:url(#SVGID_00000030470446855429373790000016094129309931621508_);" d="M-138.7,905.5
	c-15.9,6.8-34.4-0.7-41.1-16.6c-6.8-15.9,0.7-34.4,16.6-41.1c15.9-6.8,34.4,0.7,41.1,16.6C-115.3,880.3-122.8,898.8-138.7,905.5
	 M-133.3,918.2c23-9.7,33.7-36.2,23.9-59.2c-9.7-22.9-36.2-33.7-59.2-23.9c-22.9,9.7-33.7,36.2-23.9,59.2
	C-182.8,917.2-156.3,927.9-133.3,918.2L-133.3,918.2z"/>
<linearGradient id="SVGID_00000089545984042301410190000018357102128518335391_" gradientUnits="userSpaceOnUse" x1="7441.772" y1="-7177.7705" x2="7524.0918" y2="-7177.7705" gradientTransform="matrix(-8.720000e-02 0.9962 -0.9962 -8.720000e-02 -4965.6001 -7830.356)">
	<stop  offset="0" style="stop-color:#101342"/>
	<stop  offset="1" style="stop-color:#323A81"/>
</linearGradient>
<path style="fill:url(#SVGID_00000089545984042301410190000018357102128518335391_);" d="M1518.3,211.3c-0.3,0.1-0.7,0.2-1,0.4
	l50.2,59.8c0.2-0.3,0.4-0.6,0.6-0.9L1518.3,211.3z M1515.3,212.6c-0.3,0.1-0.6,0.3-0.9,0.4l51.3,61.2c0.2-0.3,0.4-0.6,0.6-0.8
	L1515.3,212.6z M1509.9,215.6c-0.3,0.2-0.6,0.4-0.8,0.6l52.7,62.8c0.2-0.2,0.5-0.5,0.7-0.7L1509.9,215.6z M1521.5,210.3
	c-0.4,0.1-0.7,0.2-1.1,0.3l48.7,58c0.2-0.3,0.3-0.7,0.5-1L1521.5,210.3z M1507.4,217.3c-0.3,0.2-0.5,0.4-0.8,0.6l52.9,63.1
	c0.3-0.2,0.5-0.4,0.8-0.7L1507.4,217.3z M1512.5,214c-0.3,0.2-0.6,0.3-0.9,0.5l52.2,62.2c0.2-0.3,0.4-0.5,0.6-0.8L1512.5,214z
	 M1524.8,209.6c-0.4,0.1-0.7,0.1-1.1,0.2l46.8,55.8c0.1-0.4,0.3-0.7,0.4-1.1L1524.8,209.6z M1552.8,214.3c-0.8-0.4-1.6-0.9-2.4-1.2
	l21.6,25.7c-0.2-0.8-0.5-1.7-0.8-2.5L1552.8,214.3z M1559.4,219l8.3,9.9c-1.1-1.8-2.4-3.6-3.8-5.3
	C1562.5,221.9,1561,220.4,1559.4,219z M1546.3,211.3c-0.6-0.2-1.2-0.4-1.8-0.6l28.8,34.3c-0.1-0.6-0.2-1.3-0.3-1.9L1546.3,211.3z
	 M1536.4,209.1c-0.5,0-0.9-0.1-1.4-0.1l38.3,45.6c0.1-0.5,0.1-0.9,0.1-1.4L1536.4,209.1z M1541,209.8c-0.5-0.1-1-0.2-1.6-0.3
	l34.1,40.6c0-0.5,0-1.1,0-1.6L1541,209.8z M1532.2,208.9c-0.4,0-0.9,0-1.3,0l41.7,49.7c0.1-0.4,0.2-0.8,0.2-1.3L1532.2,208.9z
	 M1528.4,209.1c-0.4,0-0.8,0.1-1.2,0.1l44.5,53c0.1-0.4,0.2-0.8,0.3-1.2L1528.4,209.1z M1500.7,223.7c-0.2,0.3-0.4,0.5-0.6,0.8
	l51.8,61.8c0.3-0.2,0.6-0.3,0.9-0.5L1500.7,223.7z M1491.2,250.5c0,0.5,0,1.1,0.1,1.6l31.9,38c0.5,0.1,1.1,0.2,1.6,0.3L1491.2,250.5
	z M1492,241.9c-0.1,0.4-0.2,0.9-0.2,1.3l40.3,48c0.4,0,0.9,0,1.3,0L1492,241.9z M1491.4,246c0,0.5-0.1,0.9-0.1,1.4l36.5,43.6
	c0.5,0.1,0.9,0.1,1.4,0.1L1491.4,246z M1491.6,255.7c0.1,0.6,0.2,1.3,0.3,1.9l25.9,30.9c0.6,0.2,1.2,0.4,1.9,0.6L1491.6,255.7z
	 M1505,219.3c-0.2,0.2-0.5,0.4-0.7,0.7l52.8,63c0.3-0.2,0.5-0.4,0.8-0.6L1505,219.3z M1493,262.2c0.3,0.9,0.6,1.8,0.9,2.7l17.1,20.4
	c0.8,0.5,1.6,0.9,2.5,1.4L1493,262.2z M1503.2,279.1l-4.5-5.3c0.7,0.9,1.4,1.9,2.1,2.8C1501.6,277.4,1502.4,278.3,1503.2,279.1z
	 M1498.8,226.2c-0.2,0.3-0.4,0.6-0.6,0.9l50.9,60.6c0.3-0.1,0.6-0.3,0.9-0.4L1498.8,226.2z M1497.1,228.9c-0.2,0.3-0.4,0.6-0.5,0.9
	l49.6,59.1c0.3-0.1,0.7-0.2,1-0.4L1497.1,228.9z M1502.8,221.4c-0.2,0.2-0.5,0.5-0.7,0.7l52.5,62.6c0.3-0.2,0.6-0.4,0.8-0.6
	L1502.8,221.4z M1492.9,238.3c-0.1,0.4-0.2,0.8-0.3,1.2l43.3,51.6c0.4,0,0.8-0.1,1.2-0.1L1492.9,238.3z M1494.1,234.9
	c-0.1,0.4-0.3,0.7-0.4,1.1l45.8,54.6c0.4-0.1,0.8-0.1,1.1-0.2L1494.1,234.9z M1495.5,231.8c-0.2,0.3-0.3,0.7-0.5,1l47.9,57.1
	c0.3-0.1,0.7-0.2,1.1-0.3L1495.5,231.8z"/>
<linearGradient id="SVGID_00000016064236181534765080000016883776901136275861_" gradientUnits="userSpaceOnUse" x1="1882.1213" y1="-12666.874" x2="1998.8789" y2="-12666.874" gradientTransform="matrix(-0.9994 -3.490000e-02 3.490000e-02 -0.9994 2081.1252 -12439.8809)">
	<stop  offset="0" style="stop-color:#E09626"/>
	<stop  offset="1" style="stop-color:#F7EC2C"/>
</linearGradient>
<path style="fill:url(#SVGID_00000016064236181534765080000016883776901136275861_);" d="M-358.6,149.6
	c-1.1,32.2,24.1,59.2,56.3,60.4c32.2,1.1,59.3-24.1,60.4-56.3c1.1-32.2-24.1-59.3-56.3-60.4C-330.5,92.2-357.5,117.4-358.6,149.6z"
	/>
<path class="st16" d="M262.2,2060.6l1.5-4.8l11.3,3.5l-1.5,4.8L262.2,2060.6z M279.3,2050.6l2.9-4.2l-9.7-6.8l-2.9,4.1L279.3,2050.6
	z M286,2027l-4.1,3l7.1,9.5l4.1-3L286,2027z M306.4,2030.5l-3.8-11.2l-4.8,1.6l3.8,11.2L306.4,2030.5z M321,2028.9l-0.1-11.8l-5.1,0
	l0.1,11.8L321,2028.9z M330.6,2030.4l4.8,1.5l3.6-11.3l-4.8-1.5L330.6,2030.4z M348.1,2039.3l6.9-9.6l-4.1-3l-6.9,9.6L348.1,2039.3z
	 M357.9,2050.3l9.6-7l-3-4.1l-9.6,7L357.9,2050.3z M363.8,2063.7l11.3-3.6l-1.6-4.8l-11.3,3.6L363.8,2063.7z M365.2,2078.3l11.8,0.1
	l0-5.1l-11.8,0L365.2,2078.3z M373.2,2096.4l1.6-4.8l-11.2-3.7l-1.6,4.8L373.2,2096.4z M364,2112.3l3-4.1l-9.5-7l-3,4.1L364,2112.3z
	 M350.2,2124.6l4.1-2.9l-6.8-9.7l-4.1,2.9L350.2,2124.6z M329.9,2120.7l3.5,11.3l4.8-1.5l-3.5-11.3L329.9,2120.7z M315.2,2121.9
	l-0.2,11.8l5.1,0.1l0.2-11.8L315.2,2121.9z M300.9,2118.5l-3.9,11.2l4.8,1.7l3.9-11.2L300.9,2118.5z M288.4,2110.8l-7.2,9.4l4,3.1
	l7.2-9.4L288.4,2110.8z M278.9,2099.6l-9.7,6.7l2.9,4.2l9.7-6.7L278.9,2099.6z M263.4,2094.3l11.3-3.4l-1.4-4.9l-11.4,3.4
	L263.4,2094.3z M260.3,2076.1l11.8,0.3l0.2-5.1l-11.8-0.3L260.3,2076.1z"/>
</svg>
